[in#0/caf @ 0xa5ac74000] Estimating duration from bitrate, this may be inaccurate
[aist#0:0/pcm_f32le @ 0xa5ac6c180] Guessed Channel Layout: stereo
Input #0, caf, from '<campaign-scratch>/captures/raw/italy_cdist_chatgpt_voice_full_narration.caf':
  Duration: 00:00:52.96, start: 0.000000, bitrate: 3072 kb/s
  Stream #0:0: Audio: pcm_f32le (lpcm / 0x6D63706C), 48000 Hz, stereo, flt, 3072 kb/s
Stream mapping:
  Stream #0:0 -> #0:0 (pcm_f32le (native) -> pcm_s16le (native))
Press [q] to stop, [?] for help
Output #0, null, to 'pipe:':
  Metadata:
    encoder         : Lavf62.12.102
  Stream #0:0: Audio: pcm_s16le, 192000 Hz, mono, s16, 3072 kb/s
    Metadata:
      encoder         : Lavc62.28.102 pcm_s16le
[Parsed_loudnorm_3 @ 0xa5ac78b40] 
{
	"input_i" : "-39.66",
	"input_tp" : "-21.13",
	"input_lra" : "2.20",
	"input_thresh" : "-49.87",
	"output_i" : "-16.68",
	"output_tp" : "-1.50",
	"output_lra" : "1.80",
	"output_thresh" : "-26.87",
	"normalization_type" : "dynamic",
	"target_offset" : "0.68"
}
[out#0/null @ 0xa5ac78180] video:0KiB audio:9375KiB subtitle:0KiB other streams:0KiB global headers:0KiB muxing overhead: unknown
size=N/A time=00:00:25.00 bitrate=N/A speed=58.6x elapsed=0:00:00.42    
